<svg width="24" height="24" viewBox="0 0 24 24" fill="none" xmlns="http://www.w3.org/2000/svg">
<g clip-path="url(#clip0_2154_544)">
<path d="M20 7V5H18V3H20V1H22V3H24V5H22V7H20ZM15.5 11C15.9167 11 16.271 10.8543 16.563 10.563C16.855 10.2717 17.0007 9.91733 17 9.5C16.9993 9.08267 16.8537 8.72867 16.563 8.438C16.2723 8.14733 15.918 8.00133 15.5 8C15.082 7.99867 14.728 8.14467 14.438 8.438C14.148 8.73133 14.002 9.08533 14 9.5C13.998 9.91467 14.144 10.269 14.438 10.563C14.732 10.857 15.086 11.0027 15.5 11ZM8.5 11C8.91667 11 9.271 10.8543 9.563 10.563C9.855 10.2717 10.0007 9.91733 10 9.5C9.99933 9.08267 9.85367 8.72867 9.563 8.438C9.27233 8.14733 8.918 8.00133 8.5 8C8.082 7.99867 7.728 8.14467 7.438 8.438C7.148 8.73133 7.002 9.08533 7 9.5C6.998 9.91467 7.144 10.269 7.438 10.563C7.732 10.857 8.086 11.0027 8.5 11ZM12 17.5C13.1333 17.5 14.1627 17.1793 15.088 16.538C16.0133 15.8967 16.684 15.0507 17.1 14H6.9C7.31667 15.05 7.98767 15.896 8.913 16.538C9.83834 17.18 10.8673 17.5007 12 17.5ZM12 22C10.6167 22 9.31667 21.7373 8.1 21.212C6.88334 20.6867 5.825 19.9743 4.925 19.075C4.025 18.1757 3.31267 17.1173 2.788 15.9C2.26333 14.6827 2.00067 13.3827 2 12C1.99933 10.6173 2.262 9.31733 2.788 8.1C3.314 6.88267 4.02633 5.82433 4.925 4.925C5.82367 4.02567 6.882 3.31333 8.1 2.788C9.318 2.26267 10.618 2 12 2C12.7167 2 13.4083 2.071 14.075 2.213C14.7417 2.355 15.3833 2.559 16 2.825V7H18V9H21.55C21.7 9.48333 21.8127 9.971 21.888 10.463C21.9633 10.955 22.0007 11.4673 22 12C22 13.3833 21.7373 14.6833 21.212 15.9C20.6867 17.1167 19.9743 18.175 19.075 19.075C18.1757 19.975 17.1173 20.6877 15.9 21.213C14.6827 21.7383 13.3827 22.0007 12 22Z" fill="#F5F5F5"/>
</g>
<defs>
<clipPath id="clip0_2154_544">
<rect width="24" height="24" fill="white"/>
</clipPath>
</defs>
</svg>
