<svg width="12" height="12" viewBox="0 0 12 12" fill="none" xmlns="http://www.w3.org/2000/svg">
<g clip-path="url(#clip0_2044_410)">
<path d="M6 2C7.8395 2 10.081 3.2085 10.865 4.9505C10.938 5.1145 11 5.3055 11 5.5C11 5.694 10.9385 5.8855 10.865 6.0495C10.0805 7.7915 7.839 9 6 9C4.161 9 1.919 7.7915 1.135 6.0495C1.062 5.885 1 5.6945 1 5.5C1 5.306 1.0615 5.1145 1.135 4.9505C1.9195 3.2085 4.161 2 6 2ZM6 3.5C5.46957 3.5 4.96086 3.71071 4.58579 4.08579C4.21071 4.46086 4 4.96957 4 5.5C4 6.03043 4.21071 6.53914 4.58579 6.91421C4.96086 7.28929 5.46957 7.5 6 7.5C6.53043 7.5 7.03914 7.28929 7.41421 6.91421C7.78929 6.53914 8 6.03043 8 5.5C8 4.96957 7.78929 4.46086 7.41421 4.08579C7.03914 3.71071 6.53043 3.5 6 3.5ZM6 4.5C6.26522 4.5 6.51957 4.60536 6.70711 4.79289C6.89464 4.98043 7 5.23478 7 5.5C7 5.76522 6.89464 6.01957 6.70711 6.20711C6.51957 6.39464 6.26522 6.5 6 6.5C5.73478 6.5 5.48043 6.39464 5.29289 6.20711C5.10536 6.01957 5 5.76522 5 5.5C5 5.23478 5.10536 4.98043 5.29289 4.79289C5.48043 4.60536 5.73478 4.5 6 4.5Z" fill="#F5F5F5"/>
<rect x="10.7808" y="0.633423" width="1.11213" height="14.4658" transform="rotate(45 10.7808 0.633423)" fill="#F5F5F5"/>
<rect x="9.99438" y="-0.152954" width="1.11213" height="14.4658" transform="rotate(45 9.99438 -0.152954)" fill="#404040"/>
</g>
<defs>
<clipPath id="clip0_2044_410">
<rect width="12" height="12" fill="white"/>
</clipPath>
</defs>
</svg>
