<svg width="16" height="14" viewBox="0 0 16 14" fill="none" xmlns="http://www.w3.org/2000/svg">
<path d="M8 13.5C4.41015 13.5 1.5 10.5899 1.5 7C1.5 3.41015 4.41015 0.5 8 0.5C11.5899 0.5 14.5 3.41015 14.5 7C14.5 10.5899 11.5899 13.5 8 13.5Z" fill="#262626"/>
<path d="M8 13.5C4.41015 13.5 1.5 10.5899 1.5 7C1.5 3.41015 4.41015 0.5 8 0.5C11.5899 0.5 14.5 3.41015 14.5 7C14.5 10.5899 11.5899 13.5 8 13.5Z" stroke="#262626"/>
<path d="M0 14V11.9C0 11.475 0.106182 11.0845 0.318545 10.7285C0.530909 10.3725 0.812606 10.1005 1.16364 9.91251C1.91515 9.52501 2.67879 9.23451 3.45455 9.04101C4.2303 8.84751 5.01818 8.75051 5.81818 8.75001C6.61818 8.74951 7.40606 8.84651 8.18182 9.04101C8.95758 9.23551 9.72121 9.52601 10.4727 9.91251C10.8242 10.1 11.1062 10.372 11.3185 10.7285C11.5309 11.085 11.6368 11.4755 11.6364 11.9V14H0ZM13.0909 14V11.75C13.0909 11.2 12.9425 10.6718 12.6458 10.1653C12.3491 9.65876 11.9278 9.22451 11.3818 8.86251C12 8.93751 12.5818 9.06576 13.1273 9.24726C13.6727 9.42876 14.1818 9.65051 14.6545 9.91251C15.0909 10.1625 15.4242 10.4405 15.6545 10.7465C15.8848 11.0525 16 11.387 16 11.75V14H13.0909ZM5.81818 8.00001C5.01818 8.00001 4.33333 7.70626 3.76364 7.11876C3.19394 6.53126 2.90909 5.82501 2.90909 5.00001C2.90909 4.17502 3.19394 3.46877 3.76364 2.88127C4.33333 2.29377 5.01818 2.00002 5.81818 2.00002C6.61818 2.00002 7.30303 2.29377 7.87273 2.88127C8.44242 3.46877 8.72727 4.17502 8.72727 5.00001C8.72727 5.82501 8.44242 6.53126 7.87273 7.11876C7.30303 7.70626 6.61818 8.00001 5.81818 8.00001ZM13.0909 5.00001C13.0909 5.82501 12.8061 6.53126 12.2364 7.11876C11.6667 7.70626 10.9818 8.00001 10.1818 8.00001C10.0485 8.00001 9.87879 7.98451 9.67273 7.95351C9.46667 7.92251 9.29697 7.88801 9.16364 7.85001C9.49091 7.45001 9.74255 7.00626 9.91855 6.51876C10.0945 6.03126 10.1823 5.52501 10.1818 5.00001C10.1813 4.47502 10.0936 3.96877 9.91855 3.48127C9.74352 2.99377 9.49188 2.55002 9.16364 2.15002C9.33333 2.08752 9.50303 2.04677 9.67273 2.02777C9.84242 2.00877 10.0121 1.99952 10.1818 2.00002C10.9818 2.00002 11.6667 2.29377 12.2364 2.88127C12.8061 3.46877 13.0909 4.17502 13.0909 5.00001Z" fill="#F5F5F5"/>
</svg>
