<svg width="12" height="16" viewBox="0 0 12 16" fill="none" xmlns="http://www.w3.org/2000/svg">
<path d="M6 11.9286C6.39782 11.9286 6.77936 11.7781 7.06066 11.5102C7.34196 11.2422 7.5 10.8789 7.5 10.5C7.5 10.1211 7.34196 9.75776 7.06066 9.48985C6.77936 9.22194 6.39782 9.07143 6 9.07143C5.60218 9.07143 5.22064 9.22194 4.93934 9.48985C4.65804 9.75776 4.5 10.1211 4.5 10.5C4.5 10.8789 4.65804 11.2422 4.93934 11.5102C5.22064 11.7781 5.60218 11.9286 6 11.9286ZM10.5 5.5C10.8978 5.5 11.2794 5.65051 11.5607 5.91842C11.842 6.18633 12 6.54969 12 6.92857V14.0714C12 14.4503 11.842 14.8137 11.5607 15.0816C11.2794 15.3495 10.8978 15.5 10.5 15.5H1.5C1.10218 15.5 0.720644 15.3495 0.43934 15.0816C0.158035 14.8137 0 14.4503 0 14.0714V6.92857C0 6.54969 0.158035 6.18633 0.43934 5.91842C0.720644 5.65051 1.10218 5.5 1.5 5.5H2.25V4.07143C2.25 3.12423 2.64509 2.21582 3.34835 1.54605C4.05161 0.876274 5.00544 0.5 6 0.5C6.49246 0.5 6.98009 0.592378 7.43506 0.771859C7.89003 0.95134 8.30343 1.21441 8.65165 1.54605C8.99987 1.87769 9.27609 2.2714 9.46455 2.7047C9.653 3.13801 9.75 3.60242 9.75 4.07143V5.5H10.5ZM6 1.92857C5.40326 1.92857 4.83097 2.15434 4.40901 2.5562C3.98705 2.95806 3.75 3.50311 3.75 4.07143V5.5H8.25V4.07143C8.25 3.50311 8.01295 2.95806 7.59099 2.5562C7.16903 2.15434 6.59674 1.92857 6 1.92857Z" fill="#047857"/>
</svg>
