<svg width="14" height="14" viewBox="0 0 14 14" fill="none" xmlns="http://www.w3.org/2000/svg">
<path d="M0.723661 0.0528137C0.639961 0.010951 0.546192 -0.0065809 0.453021 0.00221218C0.35985 0.0110053 0.271017 0.0457704 0.196626 0.102553C0.122236 0.159335 0.065275 0.235856 0.0322226 0.32341C-0.000829868 0.410964 -0.00864684 0.506037 0.00966092 0.597814L1.41266 5.44781C1.43882 5.5382 1.48995 5.61936 1.56018 5.68198C1.63041 5.74461 1.71688 5.78614 1.80966 5.80181L7.49966 6.75481C7.76766 6.80781 7.76766 7.19181 7.49966 7.24481L1.80966 8.19781C1.71688 8.21349 1.63041 8.25502 1.56018 8.31764C1.48995 8.38026 1.43882 8.46143 1.41266 8.55181L0.00966092 13.4018C-0.00864684 13.4936 -0.000829868 13.5887 0.0322226 13.6762C0.065275 13.7638 0.122236 13.8403 0.196626 13.8971C0.271017 13.9539 0.35985 13.9886 0.453021 13.9974C0.546192 14.0062 0.639961 13.9887 0.723661 13.9468L13.7237 7.44681C13.8066 7.40524 13.8763 7.34142 13.9251 7.26248C13.9738 7.18353 13.9996 7.09259 13.9996 6.99981C13.9996 6.90704 13.9738 6.81609 13.9251 6.73715C13.8763 6.65821 13.8066 6.59438 13.7237 6.55281L0.723661 0.0528137Z" fill="#F5F5F5"/>
</svg>
