<svg width="14" height="14" viewBox="0 0 14 14" fill="none" xmlns="http://www.w3.org/2000/svg">
<path d="M7 13.5C3.41015 13.5 0.5 10.5899 0.5 7C0.5 3.41015 3.41015 0.5 7 0.5C10.5899 0.5 13.5 3.41015 13.5 7C13.5 10.5899 10.5899 13.5 7 13.5Z" fill="#262626"/>
<path d="M7 13.5C3.41015 13.5 0.5 10.5899 0.5 7C0.5 3.41015 3.41015 0.5 7 0.5C10.5899 0.5 13.5 3.41015 13.5 7C13.5 10.5899 10.5899 13.5 7 13.5Z" stroke="#262626"/>
<path d="M7 8C6.175 8 5.46875 7.70625 4.88125 7.11875C4.29375 6.53125 4 5.825 4 5C4 4.175 4.29375 3.46875 4.88125 2.88125C5.46875 2.29375 6.175 2 7 2C7.825 2 8.53125 2.29375 9.11875 2.88125C9.70625 3.46875 10 4.175 10 5C10 5.825 9.70625 6.53125 9.11875 7.11875C8.53125 7.70625 7.825 8 7 8ZM1 14V11.9C1 11.475 1.1095 11.0845 1.3285 10.7285C1.5475 10.3725 1.838 10.1005 2.2 9.9125C2.975 9.525 3.7625 9.2345 4.5625 9.041C5.3625 8.8475 6.175 8.7505 7 8.75C7.825 8.7495 8.6375 8.8465 9.4375 9.041C10.2375 9.2355 11.025 9.526 11.8 9.9125C12.1625 10.1 12.4532 10.372 12.6722 10.7285C12.8912 11.085 13.0005 11.4755 13 11.9V14H1Z" fill="#F5F5F5"/>
</svg>
